<?xml version="1.0" encoding="utf-8" ?>
<svg xmlns="http://www.w3.org/2000/svg" xmlns:xlink="http://www.w3.org/1999/xlink" width="1279" height="1279">
	<path transform="scale(2.558 2.558)" d="M0 0L500 0L500 500L0 500L0 0Z"/>
	<path fill="#1B4ED9" transform="scale(2.558 2.558)" d="M162.138 441.939C157.402 442.143 152.593 441.981 147.85 441.986L137.26 441.984C129.729 441.969 122.906 441.79 117.272 436.082C114.123 432.892 112.198 428.478 111.67 424.051C111.277 420.755 111.467 417.303 111.472 413.986L111.485 398.269L111.486 344.413L111.475 167.961C111.49 161.574 112.785 155.883 117.51 151.248Q118.473 150.303 119.557 149.498Q120.64 148.694 121.824 148.045Q123.007 147.397 124.269 146.917Q125.53 146.437 126.845 146.134C132.226 144.848 138.545 145.464 144.072 145.475L165.511 145.469C171.667 145.497 177.284 146.903 181.711 151.426C184.59 154.368 186.779 158.614 187.309 162.715C187.672 165.519 187.535 168.477 187.537 171.301L187.53 184.772L187.528 228.72L187.529 321.534C187.532 338.502 187.686 355.484 187.493 372.45L187.533 407.266C187.534 412.946 188.167 420.679 187.013 426.083Q186.868 426.787 186.673 427.479Q186.477 428.172 186.234 428.848Q185.99 429.525 185.699 430.182Q185.407 430.84 185.07 431.475Q184.733 432.11 184.351 432.72Q183.97 433.329 183.546 433.91Q183.122 434.491 182.658 435.041Q182.194 435.59 181.692 436.105C176.923 440.934 171.112 441.98 164.575 441.968Q163.356 441.964 162.138 441.939Z"/>
	<path fill="#3A6CEC" transform="scale(2.558 2.558)" d="M145.05 441.706C152.217 429.139 160.161 416.695 167.64 404.262L179.072 385.266C181.4 381.402 183.658 377.429 186.195 373.698C186.63 373.057 186.787 372.765 187.493 372.45L187.533 407.266C187.534 412.946 188.167 420.679 187.013 426.083Q186.868 426.787 186.673 427.479Q186.477 428.172 186.234 428.848Q185.99 429.525 185.699 430.182Q185.407 430.84 185.07 431.475Q184.733 432.11 184.351 432.72Q183.97 433.329 183.546 433.91Q183.122 434.491 182.658 435.041Q182.194 435.59 181.692 436.105C176.923 440.934 171.112 441.98 164.575 441.968Q163.356 441.964 162.138 441.939C159.18 441.212 148.71 441.726 145.05 441.706Z"/>
	<path fill="#3A6CEC" transform="scale(2.558 2.558)" d="M332.298 196.104C338.612 195.799 345.027 196.035 351.356 196.028C357.519 196.022 367.793 195.372 373.443 196.661C376.403 197.337 379.295 198.875 381.59 200.852C385.601 204.306 388.058 209.459 388.427 214.708C388.748 219.283 388.539 223.988 388.531 228.58L388.516 252.857L388.525 330.307L388.53 393.551L388.529 413.375C388.528 416.859 388.746 420.514 388.405 423.971Q388.322 424.744 388.181 425.508Q388.039 426.273 387.84 427.024Q387.641 427.776 387.386 428.51Q387.13 429.244 386.82 429.956Q386.509 430.669 386.145 431.356Q385.781 432.043 385.366 432.7Q384.951 433.357 384.488 433.981Q384.024 434.605 383.514 435.192C379.583 439.669 374.621 441.506 368.812 441.904C361.694 442.135 354.516 441.97 347.392 441.972C341.36 441.975 333.211 442.63 327.524 441.335C324.569 440.662 321.781 439.13 319.494 437.16C315.602 433.81 312.972 428.813 312.59 423.674C312.243 419.029 312.476 414.221 312.482 409.559L312.497 384.898L312.493 305.788L312.483 242.879L312.483 224.159C312.484 220.751 312.254 217.138 312.626 213.756C313.063 209.771 314.909 205.768 317.542 202.762C321.512 198.23 326.44 196.501 332.298 196.104Z"/>
	<path fill="#202020" transform="scale(2.558 2.558)" d="M268.855 249.782C266.173 250.391 232.319 250.078 228.633 249.528C223.344 248.739 219.094 246.111 215.948 241.793C213.841 238.902 212.626 235.697 212.28 232.143C211.887 228.093 212.024 223.952 212.029 219.887L212.039 201.498L212.036 141.664L212.025 96.9453C212.02 90.1027 211.411 79.6055 212.497 73.1139C213.315 68.2218 216.442 63.5584 220.472 60.7141Q221.336 60.1092 222.261 59.6018Q223.186 59.0945 224.161 58.6907Q225.136 58.2869 226.148 57.9915Q227.161 57.6961 228.2 57.5125C234.626 56.3771 242.614 57.0603 249.19 57.0574C255.97 57.0544 265.368 56.416 271.823 57.54C276.864 58.4178 281.258 61.1565 284.171 65.3744C286.287 68.4384 287.435 71.8034 287.755 75.5025C288.115 79.6557 287.938 83.8787 287.937 88.0455L287.934 109.103L287.93 176.165L288.004 212.48C288.033 217.379 288.614 226.572 287.78 231.135C287.508 236.435 285.364 241.119 281.429 244.72C277.903 247.946 273.613 249.621 268.855 249.782Z"/>
	<path fill="#3E3E3E" transform="scale(2.558 2.558)" d="M287.788 204.743C287.482 213.505 287.828 222.361 287.78 231.135C287.508 236.435 285.364 241.119 281.429 244.72C277.903 247.946 273.613 249.621 268.855 249.782C266.141 249.69 263.388 249.782 260.668 249.759Q274.35 227.324 287.788 204.743Z"/>
	<path fill="#3A6CEC" transform="scale(2.558 2.558)" d="M247.832 271.087Q254.336 271.015 260.841 271.012C268.712 271.001 275.883 270.763 281.904 276.653C287.176 281.809 287.954 287.524 287.978 294.562L287.959 384.415L287.968 409.764C287.98 414.963 288.398 420.565 287.582 425.706C286.952 429.677 284.915 433.261 282.101 436.096Q281.167 437.049 280.112 437.864Q279.056 438.68 277.898 439.342Q276.741 440.005 275.503 440.503Q274.265 441 272.971 441.323C268.115 442.526 262.258 441.971 257.255 441.972L235.821 441.956C228.79 441.93 222.995 441.335 217.821 436.071Q217.301 435.544 216.822 434.98Q216.343 434.416 215.907 433.817Q215.472 433.218 215.084 432.588Q214.695 431.958 214.355 431.3Q214.015 430.643 213.726 429.961Q213.436 429.28 213.199 428.579Q212.962 427.877 212.778 427.16Q212.595 426.443 212.466 425.714C211.737 421.61 212.008 417.215 212.014 413.055L212.035 394.688C212.035 374.107 211.725 353.472 212.043 332.898C212.062 331.713 212.064 330.523 212.17 329.342C211.955 327.815 212.031 326.177 212.026 324.632L212.025 303.708C212.011 298.085 211.395 291.527 212.756 286.049Q213.082 284.728 213.583 283.462Q214.083 282.197 214.749 281.01Q215.415 279.823 216.234 278.737Q217.053 277.65 218.011 276.683C223.476 271.261 230.348 271.022 237.594 271.037L247.832 271.087Z"/>
	<path fill="#1B4ED9" transform="scale(2.558 2.558)" d="M212.17 329.342C211.955 327.815 212.031 326.177 212.026 324.632L212.025 303.708C212.011 298.085 211.395 291.527 212.756 286.049Q213.082 284.728 213.583 283.462Q214.083 282.197 214.749 281.01Q215.415 279.823 216.234 278.737Q217.053 277.65 218.011 276.683C223.476 271.261 230.348 271.022 237.594 271.037L247.832 271.087C246.371 272.449 243.667 278.129 242.426 280.186C238.601 286.53 214.726 327.266 212.17 329.342Z"/>
	<path fill="#3E3E3E" transform="scale(2.558 2.558)" d="M313.435 161.524C312.857 159.64 312.671 157.742 312.572 155.781C312.322 150.829 312.489 145.811 312.487 140.851L312.484 113.704L312.488 89.7664C312.49 85.3683 312.309 80.8742 312.581 76.4869C312.739 73.9541 313.105 71.6225 314.117 69.281C316.207 64.4468 320.18 60.3768 325.121 58.4785C327.01 57.7529 328.968 57.3862 330.979 57.22C336.864 56.7334 342.916 57.0779 348.821 57.0662C355.971 57.052 363.282 56.7036 370.406 57.2618C372.29 57.4094 374.214 57.619 375.959 58.383C381.418 61.1095 385.679 65.0919 387.584 71.0493C388.199 72.9731 388.371 75.3401 388.447 77.356C388.651 82.8017 388.501 88.3087 388.503 93.7597L388.508 124.045L388.504 144.92C388.502 149.016 388.675 153.2 388.322 157.283C388.08 160.086 387.316 162.625 385.957 165.094Q385.726 165.52 385.473 165.935Q385.221 166.35 384.949 166.751Q384.676 167.153 384.384 167.54Q384.092 167.928 383.782 168.301Q383.471 168.673 383.142 169.03Q382.813 169.387 382.467 169.727Q382.121 170.067 381.759 170.39Q381.396 170.713 381.018 171.017Q380.641 171.321 380.248 171.607Q379.856 171.892 379.449 172.158Q379.043 172.423 378.625 172.668Q378.206 172.914 377.775 173.138Q377.345 173.362 376.904 173.565Q376.463 173.767 376.013 173.948Q375.562 174.129 375.104 174.287Q374.645 174.445 374.179 174.58Q371.585 175.311 368.893 175.448C361.934 175.87 354.781 175.503 347.8 175.499C341.931 175.496 335.554 176.014 329.76 175.223Q327.864 174.978 326.051 174.372Q324.238 173.766 322.575 172.823C318.169 170.311 315.134 166.248 313.435 161.524Z"/>
	<path fill="#202020" transform="scale(2.558 2.558)" d="M313.435 161.524C312.857 159.64 312.671 157.742 312.572 155.781C312.322 150.829 312.489 145.811 312.487 140.851L312.484 113.704L312.488 89.7664C312.49 85.3683 312.309 80.8742 312.581 76.4869C312.739 73.9541 313.105 71.6225 314.117 69.281C316.207 64.4468 320.18 60.3768 325.121 58.4785C327.01 57.7529 328.968 57.3862 330.979 57.22C336.864 56.7334 342.916 57.0779 348.821 57.0662C355.971 57.052 363.282 56.7036 370.406 57.2618C372.29 57.4094 374.214 57.619 375.959 58.383L332.426 130.673Q326.23 141.209 319.856 151.637C317.98 154.734 316.012 159.012 313.435 161.524Z"/>
	<path fill="#202020" transform="scale(2.558 2.558)" d="M132.091 57.1099C138.737 56.8385 145.464 57.0405 152.117 57.0382C158.529 57.036 166.412 56.3586 172.625 57.801Q173.76 58.063 174.853 58.4684Q175.945 58.8737 176.976 59.4157Q178.008 59.9577 178.961 60.6274Q179.914 61.2971 180.774 62.0834C185.233 66.1401 187.236 71.5773 187.482 77.5027C187.688 82.472 187.497 87.5118 187.51 92.4876C187.533 101.702 188.782 111.503 181.923 118.784C177.879 123.077 172.854 124.669 167.084 124.807C160.595 125.177 153.982 124.942 147.48 124.943C141.004 124.943 132.61 125.634 126.393 124.214C123.384 123.527 120.656 122.056 118.34 120.02C114.014 116.218 111.859 110.9 111.536 105.221C111.287 100.857 111.498 96.3973 111.49 92.024C111.48 86.0036 110.77 77.9269 112.205 72.165Q112.506 70.9549 112.953 69.7909Q113.401 68.6269 113.988 67.5267Q114.575 66.4264 115.293 65.4067Q116.01 64.3869 116.848 63.463C121.024 58.8748 126.077 57.4155 132.091 57.1099Z"/>
</svg>
